<svg width="16" height="14" viewBox="0 0 16 14" fill="none" xmlns="http://www.w3.org/2000/svg">
<path d="M8.85106 14C9.06063 14 9.23794 13.9194 9.37498 13.7824L15.7664 7.54403C15.9196 7.3909 16.0001 7.20551 16.0001 7.00402C16.0001 6.79446 15.9115 6.59298 15.7585 6.46402L9.37498 0.217612C9.23794 0.0806072 9.06063 0 8.85106 0C8.43197 0 8.11762 0.322395 8.11762 0.74149C8.11762 0.934961 8.19823 1.1284 8.32718 1.2654L14.1948 7.00402L8.32718 12.7426C8.19823 12.8796 8.11762 13.065 8.11762 13.2665C8.11762 13.6857 8.43197 14 8.85106 14ZM1.65363 14C1.85512 14 2.04047 13.9194 2.17751 13.7824L8.56092 7.54403C8.71406 7.3909 8.79466 7.20551 8.79466 7.00402C8.79466 6.79446 8.71406 6.59298 8.56092 6.46402L2.17751 0.217612C2.03243 0.0806072 1.85512 0 1.65363 0C1.2345 0 0.912109 0.322395 0.912109 0.74149C0.912109 0.934961 1.00076 1.1284 1.12972 1.2654L6.98926 7.00402L1.12972 12.7426C1.00076 12.8796 0.912109 13.065 0.912109 13.2665C0.912109 13.6857 1.2345 14 1.65363 14Z" fill="#262626"/>
</svg>
