<svg width="387" height="124" viewBox="0 0 387 124" fill="none" xmlns="http://www.w3.org/2000/svg">
<path d="M281.938 43.2971V17.6789H278.868V11.539H285.22V16.4086H287.76C288.678 14.6442 290.001 13.3034 291.73 12.3859C293.494 11.4332 295.611 10.9568 298.082 10.9568C300.587 10.9568 302.704 11.4508 304.433 12.4388C306.197 13.4269 307.609 14.9442 308.668 16.9908H308.826C311.049 12.9681 314.702 10.9568 319.783 10.9568C323.7 10.9568 326.752 12.086 328.94 14.3443C331.128 16.6027 332.221 19.7079 332.221 23.66V43.2971H326.293V24.5069C326.293 18.9316 323.576 16.1439 318.142 16.1439C312.743 16.1439 310.044 18.9316 310.044 24.5069V43.2971H304.116V24.5069C304.116 18.9316 301.398 16.1439 295.964 16.1439C293.318 16.1439 291.306 16.8673 289.93 18.3141C288.554 19.7255 287.866 21.7898 287.866 24.5069V43.2971H281.938Z" fill="#FFFCF6"/>
<path d="M265.745 43.2968V11.5387H271.673V43.2968H265.745ZM268.709 7.19848C267.721 7.19848 266.874 6.84562 266.168 6.13988C265.462 5.43415 265.109 4.58727 265.109 3.59924C265.109 2.61121 265.462 1.76433 266.168 1.0586C266.874 0.352866 267.721 0 268.709 0C269.697 0 270.544 0.352866 271.249 1.0586C271.955 1.76433 272.308 2.61121 272.308 3.59924C272.308 4.58727 271.955 5.43415 271.249 6.13988C270.544 6.84562 269.697 7.19848 268.709 7.19848Z" fill="#FFFCF6"/>
<path d="M250.168 43.2964C248.474 43.2964 247.151 42.873 246.198 42.0261C245.281 41.1439 244.822 39.8383 244.822 38.1093V16.0904H238.894V11.5384H244.875V2.01099H250.697V11.5384H259.007V16.0904H250.75V38.6386H259.854V43.2964H250.168Z" fill="#FFFCF6"/>
<path d="M222.927 43.9319C218.517 43.9319 215.041 43.0145 212.5 41.1796C209.96 39.3446 208.566 36.7864 208.319 33.5047H214.194C214.441 35.4455 215.288 36.8746 216.735 37.792C218.181 38.7095 220.316 39.1682 223.139 39.1682C228.079 39.1682 230.549 37.6156 230.549 34.5104C230.549 33.24 230.161 32.2697 229.385 31.5992C228.644 30.8935 227.374 30.3818 225.574 30.0642L218.64 28.7939C212.747 27.7 209.801 24.8947 209.801 20.378C209.801 17.4492 210.912 15.138 213.135 13.4442C215.358 11.7504 218.393 10.9036 222.239 10.9036C226.227 10.9036 229.385 11.7681 231.714 13.4971C234.078 15.2262 235.419 17.661 235.736 20.8015H229.967C229.614 19.0371 228.785 17.7315 227.479 16.8847C226.209 16.0378 224.409 15.6143 222.081 15.6143C219.928 15.6143 218.252 15.9848 217.052 16.7259C215.888 17.4669 215.305 18.5431 215.305 19.9546C215.305 21.0485 215.676 21.913 216.417 22.5482C217.193 23.148 218.428 23.6068 220.122 23.9244L227.056 25.2476C230.161 25.8122 232.437 26.8179 233.884 28.2646C235.331 29.7114 236.054 31.6521 236.054 34.0869C236.054 37.1922 234.925 39.6093 232.667 41.3383C230.408 43.0674 227.162 43.9319 222.927 43.9319Z" fill="#FFFCF6"/>
<path d="M195.778 43.2968V11.5387H201.706V43.2968H195.778ZM198.742 7.19848C197.754 7.19848 196.907 6.84562 196.201 6.13988C195.495 5.43415 195.142 4.58727 195.142 3.59924C195.142 2.61121 195.495 1.76433 196.201 1.0586C196.907 0.352866 197.754 0 198.742 0C199.73 0 200.576 0.352866 201.282 1.0586C201.988 1.76433 202.341 2.61121 202.341 3.59924C202.341 4.58727 201.988 5.43415 201.282 6.13988C200.576 6.84562 199.73 7.19848 198.742 7.19848Z" fill="#FFFCF6"/>
<path d="M157.263 56V17.6786H154.193V11.5387H160.544V16.4083H162.767C163.826 14.6087 165.273 13.2501 167.108 12.3327C168.943 11.3799 171.13 10.9036 173.671 10.9036C176.882 10.9036 179.599 11.574 181.822 12.9149C184.045 14.2558 185.739 16.1613 186.904 18.6314C188.103 21.1014 188.703 24.0302 188.703 27.4177C188.703 30.8053 188.121 33.7341 186.956 36.2041C185.792 38.6742 184.116 40.5797 181.928 41.9206C179.776 43.2615 177.2 43.9319 174.2 43.9319C171.695 43.9319 169.507 43.4379 167.637 42.4499C165.767 41.4266 164.355 39.9975 163.403 38.1625H163.191V56H157.263ZM172.771 38.8506C175.947 38.8506 178.399 37.845 180.128 35.8336C181.893 33.8223 182.775 31.017 182.775 27.4177C182.775 23.8185 181.893 21.0132 180.128 19.0019C178.399 16.9905 175.947 15.9848 172.771 15.9848C169.878 15.9848 167.549 16.8141 165.784 18.4726C164.055 20.131 163.191 22.3365 163.191 25.0888V29.7467C163.191 32.499 164.055 34.7044 165.784 36.3629C167.549 38.0214 169.878 38.8506 172.771 38.8506Z" fill="#FFFCF6"/>
<path d="M132.801 43.9319C129.519 43.9319 126.643 43.2615 124.173 41.9206C121.738 40.5444 119.85 38.6213 118.51 36.1512C117.169 33.6811 116.498 30.77 116.498 27.4177C116.498 24.0655 117.169 21.1544 118.51 18.6843C119.85 16.2142 121.738 14.3087 124.173 12.9678C126.643 11.5917 129.519 10.9036 132.801 10.9036C136.188 10.9036 139.082 11.574 141.481 12.9149C143.916 14.2558 145.786 16.1613 147.092 18.6314C148.433 21.1014 149.103 24.0302 149.103 27.4177C149.103 30.77 148.433 33.6988 147.092 36.2041C145.786 38.6742 143.916 40.5797 141.481 41.9206C139.046 43.2615 136.153 43.9319 132.801 43.9319ZM132.801 38.7448C136.082 38.7448 138.623 37.7567 140.423 35.7807C142.257 33.7694 143.175 30.9817 143.175 27.4177C143.175 23.8185 142.257 21.0308 140.423 19.0548C138.623 17.0787 136.082 16.0907 132.801 16.0907C129.554 16.0907 127.014 17.0964 125.179 19.1077C123.344 21.0838 122.426 23.8538 122.426 27.4177C122.426 30.9817 123.344 33.7694 125.179 35.7807C127.014 37.7567 129.554 38.7448 132.801 38.7448Z" fill="#FFFCF6"/>
<path d="M103.039 43.2964C101.345 43.2964 100.022 42.873 99.0695 42.0261C98.152 41.1439 97.6933 39.8383 97.6933 38.1093V16.0904H91.7651V11.5384H97.7462V2.01099H103.569V11.5384H111.879V16.0904H103.621V38.6386H112.725V43.2964H103.039Z" fill="#FFFCF6"/>
<path d="M56.9023 56V17.6786H53.8324V11.5387H60.184V16.4083H62.4071C63.4657 14.6087 64.9124 13.2501 66.7473 12.3327C68.5822 11.3799 70.77 10.9036 73.3107 10.9036C76.5217 10.9036 79.2388 11.574 81.4619 12.9149C83.6849 14.2558 85.3787 16.1613 86.5432 18.6314C87.7429 21.1014 88.3428 24.0302 88.3428 27.4177C88.3428 30.8053 87.7606 33.7341 86.5961 36.2041C85.4316 38.6742 83.7555 40.5797 81.5677 41.9206C79.4153 43.2615 76.8393 43.9319 73.84 43.9319C71.3346 43.9319 69.1468 43.4379 67.2766 42.4499C65.4064 41.4266 63.995 39.9975 63.0422 38.1625H62.8305V56H56.9023ZM72.4108 38.8506C75.5866 38.8506 78.0391 37.845 79.7681 35.8336C81.5325 33.8223 82.4146 31.017 82.4146 27.4177C82.4146 23.8185 81.5325 21.0132 79.7681 19.0019C78.0391 16.9905 75.5866 15.9848 72.4108 15.9848C69.5173 15.9848 67.1884 16.8141 65.4241 18.4726C63.695 20.131 62.8305 22.3365 62.8305 25.0888V29.7467C62.8305 32.499 63.695 34.7044 65.4241 36.3629C67.1884 38.0214 69.5173 38.8506 72.4108 38.8506Z" fill="#FFFCF6"/>
<path d="M30.0263 43.879C26.427 43.879 23.5864 42.9968 21.5045 41.2325C19.4579 39.4329 18.4346 37.0863 18.4346 34.1928C18.4346 31.1581 19.4579 28.8116 21.5045 27.1531C23.5511 25.4593 26.4976 24.6124 30.3438 24.6124H41.1945V23.1833C41.1945 18.2785 38.4951 15.8261 33.0962 15.8261C28.6854 15.8261 26.0212 17.4845 25.1038 20.8015H19.1227C19.652 17.661 21.1516 15.2262 23.6217 13.4971C26.1271 11.7681 29.3205 10.9036 33.2021 10.9036C37.6129 10.9036 40.9828 11.9445 43.3117 14.0264C45.6759 16.1083 46.858 19.1077 46.858 23.0245V37.1569H49.7162V43.2968H43.3646V38.4272H41.1416C40.0477 40.121 38.548 41.4618 36.6425 42.4499C34.737 43.4026 32.5316 43.879 30.0263 43.879ZM30.8202 39.1153C32.7257 39.1153 34.4724 38.7271 36.0603 37.9508C37.6482 37.1745 38.9009 36.1159 39.8183 34.775C40.7358 33.4341 41.1945 31.9697 41.1945 30.3818V28.9527H30.7143C26.2682 28.9527 24.0452 30.6112 24.0452 33.9281C24.0452 35.516 24.645 36.7864 25.8448 37.7391C27.0445 38.6566 28.703 39.1153 30.8202 39.1153Z" fill="#FFFCF6"/>
<path d="M5.34595 43.2964C3.65219 43.2964 2.32894 42.873 1.3762 42.0261C0.458741 41.1439 1.31243e-05 39.8383 1.31243e-05 38.1093V16.0904L0.0529434 11.5384V2.01099H5.87525L5.92818 11.5384V16.0904V38.6386H15.0322V43.2964H5.34595Z" fill="#FFFCF6"/>
<path d="M51.7754 123.041C54.9238 114.357 55.5332 104.861 53.6035 94.5527C57.1582 94.7051 60.222 94.3242 62.7949 93.4102C62.7441 93.681 62.6764 94.1042 62.5918 94.6797C62.5072 95.2383 62.4395 95.6615 62.3887 95.9492C66.0788 93.7318 70.082 92.623 74.3984 92.623C79.6628 92.623 83.7676 93.9603 86.7129 96.6348C88.2871 98.1413 89.4382 99.8086 90.166 101.637C90.9108 103.448 91.2832 105.538 91.2832 107.908C91.2832 112.242 89.8105 115.847 86.8652 118.725C85.3249 120.214 83.666 121.255 81.8887 121.848C80.1113 122.44 78.097 122.736 75.8457 122.736C73.1204 122.736 70.6491 122.364 68.4316 121.619C66.2142 120.857 63.8529 119.757 61.3477 118.318C61.4154 120.417 61.4831 121.941 61.5508 122.889C58.0807 121.873 54.8223 121.924 51.7754 123.041ZM61.2969 115.957C64.8854 118.395 68.4401 119.613 71.9609 119.613C75.1094 119.613 77.877 118.471 80.2637 116.186C81.2624 115.187 82.041 113.926 82.5996 112.402C83.1582 110.879 83.4375 109.229 83.4375 107.451C83.4375 103.761 82.3965 100.9 80.3145 98.8691C77.877 96.5332 74.7793 95.3652 71.0215 95.3652C67.6868 95.3652 64.6992 96.4062 62.0586 98.4883C61.4323 103.702 61.1784 109.525 61.2969 115.957ZM97.0215 110.549C98.8327 103.829 98.8327 97.8535 97.0215 92.623C99.8822 93.6387 103.039 93.6387 106.492 92.623C105.02 97.5996 104.96 102.593 106.314 107.604C104.436 107.519 102.785 107.739 101.363 108.264C99.9414 108.771 98.4941 109.533 97.0215 110.549ZM111.672 103.998C111.672 97.0918 114.05 91.4128 118.807 86.9609C122.361 83.5586 126.678 81.2988 131.756 80.1816L132.162 81.8574C129.048 83.0254 126.5 84.8958 124.52 87.4688C121.168 91.8359 119.492 97.4557 119.492 104.328C119.492 109.305 120.457 113.41 122.387 116.643C123.978 119.351 126.195 120.705 129.039 120.705C130.342 120.705 131.544 120.4 132.645 119.791C133.762 119.165 134.71 118.31 135.488 117.227C136.538 115.737 137.257 113.934 137.646 111.818C138.053 109.702 138.256 107.739 138.256 105.928C138.256 104.235 138.044 102.627 137.621 101.104C137.215 99.5632 136.699 98.3952 136.072 97.5996C138.324 98.0736 140.609 98.0566 142.928 97.5488C145.01 100.003 146.051 103.092 146.051 106.816C146.051 109.203 145.678 111.327 144.934 113.189C144.206 115.035 142.987 116.778 141.277 118.42C138.214 121.331 134.447 122.787 129.979 122.787C124.037 122.787 119.585 121.052 116.623 117.582C113.322 113.74 111.672 109.212 111.672 103.998ZM151.23 108.01C151.23 103.304 153.16 99.4531 157.02 96.457C158.882 95.0182 160.913 94.0195 163.113 93.4609C165.314 92.9023 167.819 92.623 170.629 92.623C173.54 92.623 176.079 92.9023 178.246 93.4609C180.43 94.0026 182.452 95.0013 184.314 96.457C188.157 99.487 190.078 103.338 190.078 108.01C190.078 112.58 188.402 116.253 185.051 119.029C183.307 120.451 181.318 121.433 179.084 121.975C176.85 122.516 174.031 122.787 170.629 122.787C167.243 122.787 164.442 122.516 162.225 121.975C160.007 121.433 158.027 120.451 156.283 119.029C152.915 116.27 151.23 112.597 151.23 108.01ZM159.051 107.908C159.051 111.92 160.109 115.009 162.225 117.176C164.594 119.596 167.413 120.807 170.68 120.807C173.93 120.807 176.74 119.596 179.109 117.176C181.225 114.958 182.283 111.869 182.283 107.908C182.283 103.795 181.073 100.503 178.652 98.0312C176.435 95.7122 173.76 94.5527 170.629 94.5527C167.548 94.5527 164.899 95.7122 162.682 98.0312C160.261 100.503 159.051 103.795 159.051 107.908ZM195.74 110.549C197.551 103.829 197.551 97.8535 195.74 92.623C198.601 93.6387 201.758 93.6387 205.211 92.623C203.738 97.5996 203.679 102.593 205.033 107.604C203.154 107.519 201.504 107.739 200.082 108.264C198.66 108.771 197.213 109.533 195.74 110.549ZM210.391 113.266C210.391 111.116 211.161 109.296 212.701 107.807C215.173 105.488 218.77 104.328 223.492 104.328C224.017 104.328 224.77 104.362 225.752 104.43L225.371 106.461C223.255 106.461 221.402 107.223 219.811 108.746C218.778 109.829 218.262 111.251 218.262 113.012C218.262 115.331 219.023 117.117 220.547 118.369C222.189 119.757 224.491 120.451 227.453 120.451C230.906 120.451 233.682 119.376 235.781 117.227C236.915 116.092 237.787 114.73 238.396 113.139C239.006 111.548 239.311 109.855 239.311 108.061C239.311 103.896 238.066 100.723 235.578 98.5391C233.124 96.4232 229.882 95.3652 225.854 95.3652C223.213 95.3652 220.775 95.6868 218.541 96.3301C216.307 96.9564 214.047 97.972 211.762 99.377L210.771 97.5996C213.311 95.873 216.036 94.612 218.947 93.8164C221.876 93.0208 225.176 92.623 228.85 92.623C231.71 92.623 234.207 92.9362 236.34 93.5625C238.473 94.1888 240.385 95.2467 242.078 96.7363C243.635 98.0736 244.863 99.6562 245.76 101.484C246.657 103.296 247.105 105.225 247.105 107.273C247.105 109.406 246.733 111.429 245.988 113.342C245.243 115.238 244.211 116.837 242.891 118.141C241.316 119.715 239.285 120.883 236.797 121.645C234.326 122.406 231.126 122.787 227.199 122.787C223.357 122.787 220.081 122.33 217.373 121.416C215.105 120.62 213.37 119.529 212.168 118.141C210.983 116.753 210.391 115.128 210.391 113.266ZM252.818 122.787C254.68 114.002 254.748 103.947 253.021 92.623C256.035 93.6556 259.048 93.6556 262.061 92.623C261.299 95.7546 260.816 99.0215 260.613 102.424C260.41 105.809 260.427 109.118 260.664 112.352C260.918 115.568 261.367 119.046 262.01 122.787C259.369 121.738 256.305 121.738 252.818 122.787ZM267.773 103.998C267.773 97.0918 270.152 91.4128 274.908 86.9609C278.463 83.5586 282.779 81.2988 287.857 80.1816L288.264 81.8574C285.149 83.0254 282.602 84.8958 280.621 87.4688C277.27 91.8359 275.594 97.4557 275.594 104.328C275.594 109.305 276.559 113.41 278.488 116.643C280.079 119.351 282.297 120.705 285.141 120.705C286.444 120.705 287.646 120.4 288.746 119.791C289.863 119.165 290.811 118.31 291.59 117.227C292.639 115.737 293.359 113.934 293.748 111.818C294.154 109.702 294.357 107.739 294.357 105.928C294.357 104.235 294.146 102.627 293.723 101.104C293.316 99.5632 292.8 98.3952 292.174 97.5996C294.425 98.0736 296.71 98.0566 299.029 97.5488C301.111 100.003 302.152 103.092 302.152 106.816C302.152 109.203 301.78 111.327 301.035 113.189C300.307 115.035 299.089 116.778 297.379 118.42C294.315 121.331 290.549 122.787 286.08 122.787C280.139 122.787 275.687 121.052 272.725 117.582C269.424 113.74 267.773 109.212 267.773 103.998ZM307.332 113.266C307.332 111.116 308.102 109.296 309.643 107.807C312.114 105.488 315.711 104.328 320.434 104.328C320.958 104.328 321.712 104.362 322.693 104.43L322.312 106.461C320.197 106.461 318.343 107.223 316.752 108.746C315.719 109.829 315.203 111.251 315.203 113.012C315.203 115.331 315.965 117.117 317.488 118.369C319.13 119.757 321.432 120.451 324.395 120.451C327.848 120.451 330.624 119.376 332.723 117.227C333.857 116.092 334.729 114.73 335.338 113.139C335.947 111.548 336.252 109.855 336.252 108.061C336.252 103.896 335.008 100.723 332.52 98.5391C330.065 96.4232 326.824 95.3652 322.795 95.3652C320.154 95.3652 317.717 95.6868 315.482 96.3301C313.248 96.9564 310.988 97.972 308.703 99.377L307.713 97.5996C310.252 95.873 312.977 94.612 315.889 93.8164C318.817 93.0208 322.118 92.623 325.791 92.623C328.652 92.623 331.148 92.9362 333.281 93.5625C335.414 94.1888 337.327 95.2467 339.02 96.7363C340.577 98.0736 341.804 99.6562 342.701 101.484C343.598 103.296 344.047 105.225 344.047 107.273C344.047 109.406 343.674 111.429 342.93 113.342C342.185 115.238 341.152 116.837 339.832 118.141C338.258 119.715 336.227 120.883 333.738 121.645C331.267 122.406 328.068 122.787 324.141 122.787C320.298 122.787 317.023 122.33 314.314 121.416C312.046 120.62 310.311 119.529 309.109 118.141C307.924 116.753 307.332 115.128 307.332 113.266ZM349.227 110.346C349.227 107.248 350.031 104.548 351.639 102.246C353.568 99.487 356.116 97.4219 359.281 96.0508L360.525 97.6758C357.512 100.689 356.006 104.675 356.006 109.635C356.006 113.189 356.903 115.991 358.697 118.039C359.442 118.885 360.314 119.562 361.312 120.07C362.311 120.561 363.361 120.807 364.461 120.807C366.408 120.807 367.956 120.231 369.107 119.08C370.309 117.878 370.91 116.059 370.91 113.621C370.91 111.878 370.512 109.525 369.717 106.562L366.619 95.0859C365.959 92.7331 365.629 90.6341 365.629 88.7891C365.629 86.6393 366.094 84.7181 367.025 83.0254C367.923 81.4173 369.294 80.0462 371.139 78.9121C372.984 77.778 374.922 77.0332 376.953 76.6777C378.426 76.4238 379.805 76.2969 381.092 76.2969C383.174 76.2969 385.137 76.627 386.982 77.2871L386.246 79.1406C384.909 78.7682 383.597 78.582 382.311 78.582C381.583 78.582 380.812 78.6497 380 78.7852C378.426 79.056 377.165 79.5299 376.217 80.207C375.269 80.8672 374.465 81.7389 373.805 82.8223C373.077 84.0241 372.713 85.4544 372.713 87.1133C372.713 88.5013 373.043 90.4564 373.703 92.9785L376.064 102.17C376.962 105.589 377.41 108.154 377.41 109.863C377.41 113.672 376.31 116.676 374.109 118.877C371.503 121.484 367.88 122.787 363.242 122.787C358.604 122.787 354.982 121.484 352.375 118.877C350.276 116.778 349.227 113.934 349.227 110.346Z" fill="#FFFCF6"/>
</svg>
