<svg width="30" height="30" viewBox="0 0 30 30" fill="none" xmlns="http://www.w3.org/2000/svg">
<path fill-rule="evenodd" clip-rule="evenodd" d="M0 8.37209C0 3.74831 3.74831 0 8.37209 0H21.6279C26.2517 0 30 3.74831 30 8.37209V21.6279C30 26.2517 26.2517 30 21.6279 30H8.37209C3.74831 30 0 26.2517 0 21.6279V8.37209Z" fill="black"/>
<path fill-rule="evenodd" clip-rule="evenodd" d="M15 24C19.9706 24 24 19.9706 24 15C24 10.0294 19.9706 6 15 6C10.0294 6 6 10.0294 6 15C6 19.9706 10.0294 24 15 24ZM13.875 9.375V15.466L17.5795 19.1705L19.1705 17.5795L16.125 14.534V9.375H13.875Z" fill="white"/>
</svg>
