<svg width="325" height="522" viewBox="0 0 325 522" fill="none" xmlns="http://www.w3.org/2000/svg">
<path d="M152.974 162.587L197.688 482.239C197.688 482.239 280.584 515.146 338.486 476.964L377.924 150.404L152.974 162.587Z" fill="#000005"/>
<path d="M151.216 160.201L152.472 168.742L155.737 191.978L160.51 226.392L166.288 268.342L172.693 314.186L179.225 360.784L185.253 403.865L190.403 440.414L194.045 466.665C194.673 470.81 195.176 474.954 195.804 479.099L195.929 479.602C196.181 481.109 197.813 483.998 199.446 484.626C212.383 489.775 226.325 492.915 240.015 495.176C267.145 499.572 296.158 499.321 322.032 488.896C325.549 487.514 328.94 485.882 332.205 484.123C333.838 483.244 335.345 482.365 336.978 481.486C337.857 480.983 339.993 480.104 340.495 479.099C340.621 478.722 340.621 478.346 340.621 477.969L341.5 470.684L345.393 438.405L351.422 388.918L358.456 330.389L365.741 269.724L372.397 214.837L377.421 173.64L379.933 153.293L380.059 152.414C380.185 151.283 377.673 147.39 376.417 147.515L354.06 148.771L300.303 151.66L235.242 155.177L178.848 158.568L160.385 159.573L154.607 159.824C153.602 159.698 152.597 159.824 151.593 159.95C151.467 159.95 151.341 159.95 151.216 159.95C150.713 159.95 152.346 162.713 152.472 162.838C152.974 163.466 153.853 165.099 154.733 165.099L177.089 163.843L230.846 160.954L295.907 157.438L352.176 154.423L370.639 153.418C373.528 153.293 376.542 153.293 379.431 152.916H379.808L376.04 147.892L374.281 161.959L369.885 198.76L363.605 250.758L356.321 310.544L349.036 370.455L342.756 422.705L338.36 460.008L337.104 470.684L336.727 473.573C336.727 473.95 336.727 474.326 336.601 474.703C336.727 474.452 335.471 475.331 335.848 475.08C334.969 475.582 334.089 476.21 333.336 476.713C331.577 477.718 329.945 478.722 328.186 479.602C324.921 481.36 321.529 482.867 318.013 484.249C311.23 486.886 304.197 488.896 296.912 490.278C282.97 492.79 268.777 493.543 254.71 492.413C235.745 491.031 217.03 487.138 198.944 480.858C197.939 480.481 197.06 480.23 196.181 479.853L199.572 484.877L198.441 476.336L195.176 452.974L190.403 418.56L184.5 376.61L178.094 330.766L171.563 284.168L165.534 241.087L160.385 204.538L156.742 178.287C156.114 174.142 155.612 169.998 154.984 165.853L154.858 165.35C154.481 164.094 153.853 162.838 152.974 161.959C152.849 161.331 151.09 159.573 151.216 160.201Z" fill="#000005"/>
<path d="M149.96 131.69C149.96 131.69 141.042 130.81 138.405 139.728C135.767 148.646 136.646 154.046 138.405 157.563C140.163 161.08 151.718 167.36 235.493 176.278C319.269 185.195 385.083 155.805 385.083 150.404C385.083 145.003 385.083 131.69 378.803 131.69C372.523 131.69 365.489 122.772 365.489 113.854C365.489 104.937 355.693 90.744 315.626 81.8264C275.56 72.9088 169.553 96.8984 162.394 107.7C157.496 115.236 153.351 123.274 149.96 131.69Z" fill="white"/>
<path d="M148.578 128.926C145.313 128.675 142.173 129.68 139.786 131.815C137.274 134.202 136.27 137.342 135.516 140.607C134.762 143.998 134.511 147.39 134.888 150.781C135.39 155.051 137.274 159.322 140.917 161.708C143.68 163.341 146.694 164.597 149.834 165.35C156.24 167.109 162.771 168.616 169.302 169.746C180.606 171.756 192.162 173.389 203.591 174.896C220.547 177.031 237.629 179.292 254.585 180.046C284.603 181.427 314.622 178.413 343.761 170.877C353.432 168.49 362.978 165.35 372.272 161.582C375.286 160.326 378.301 158.945 381.19 157.312C382.948 156.433 384.581 155.302 386.088 154.046C387.846 152.288 387.218 149.399 387.093 147.138C386.842 141.612 386.088 135.081 381.943 130.936C381.19 130.057 380.185 129.429 379.18 129.052C378.05 128.675 376.794 128.801 375.538 128.424C372.9 127.419 370.765 125.41 369.509 122.898C368.253 120.386 367.625 117.497 367.625 114.734C367.499 113.352 367.248 111.845 366.871 110.589C364.61 103.304 358.707 97.5264 352.553 93.3816C341.374 85.8456 327.81 81.952 314.873 79.0632C306.081 77.3048 297.163 76.6768 288.246 77.0536C277.067 77.3048 265.889 78.3096 254.836 79.8168C232.605 82.58 210.625 87.1016 189.022 93.1304C181.611 95.0144 174.452 97.5264 167.418 100.666C165.409 101.546 163.525 102.55 161.892 103.932C160.887 104.937 160.008 106.193 159.254 107.449C157.119 110.84 155.235 114.231 153.477 117.748C151.593 121.516 149.834 125.284 148.202 129.178C147.448 130.936 151.467 135.458 152.095 133.825C153.602 129.931 155.486 126.163 157.37 122.395C159.129 119.004 160.887 115.738 162.897 112.473C163.399 111.594 164.027 110.714 164.655 109.835C164.906 109.584 164.655 109.835 164.655 109.71C164.906 109.458 165.158 109.207 165.409 108.956C167.042 107.7 168.926 106.57 170.81 105.816C173.698 104.434 176.838 103.304 179.853 102.174C198.818 95.6424 218.663 91.372 238.382 88.1064C259.358 84.464 281.086 81.5752 302.438 82.58C313.617 83.208 324.67 85.5944 335.22 89.3624C340.621 91.1208 345.896 93.5072 350.92 96.396C352.93 97.5264 354.814 98.908 356.572 100.29L357.326 100.918C357.702 101.169 357.954 101.42 358.33 101.797C358.707 102.174 359.084 102.425 359.335 102.802L359.712 103.178C359.21 102.676 359.838 103.304 359.963 103.43L360.717 104.309C360.842 104.434 361.722 105.565 361.094 104.811L361.722 105.565C361.847 105.816 362.475 106.946 361.973 105.942C362.35 106.57 362.601 107.072 362.852 107.7C362.475 106.821 362.852 107.7 362.978 107.951C363.103 108.202 363.229 108.579 363.354 108.956C363.48 109.333 363.229 108.454 363.48 109.207C363.48 109.458 363.606 109.71 363.606 109.961C363.606 110.212 363.731 110.463 363.731 110.84C363.731 111.217 363.731 111.217 363.731 110.714V111.217C363.731 114.357 364.359 117.497 365.615 120.511C368.127 126.289 373.277 133.699 380.185 134.202C380.562 134.202 380.938 134.202 381.315 134.327C381.315 134.327 381.943 134.578 381.692 134.453C382.32 134.704 381.315 134.453 381.943 134.704C381.818 134.704 381.692 134.327 381.566 134.202C382.069 134.578 381.441 133.825 381.692 134.453C381.943 134.83 382.069 135.332 382.194 135.709C382.822 138.095 383.199 140.482 383.199 142.868C383.199 143.998 383.325 145.129 383.325 146.259C383.325 146.762 383.325 147.39 383.325 147.892C383.325 148.394 383.199 148.646 383.325 148.143C383.325 148.269 383.199 148.52 383.074 148.646C382.822 148.897 383.325 148.394 383.074 148.646C382.948 148.771 382.822 148.897 382.697 149.022C381.19 150.278 379.682 151.409 377.924 152.288C371.393 155.679 364.485 158.568 357.451 160.829C332.582 168.993 306.709 173.64 280.584 174.645C263.754 175.398 246.798 174.77 230.093 172.886C215.398 171.254 200.702 169.621 186.007 167.486C176.838 166.104 167.544 164.722 158.501 162.713C153.728 161.834 148.955 160.578 144.308 158.945C143.554 158.694 142.926 158.442 142.298 158.066L141.419 157.689L141.042 157.563C140.54 157.312 141.545 157.814 141.042 157.563L139.912 156.81C139.284 156.307 140.289 157.061 139.912 156.81C139.786 156.684 139.661 156.558 139.535 156.433C139.41 156.307 140.163 157.186 139.786 156.684C139.41 156.182 140.414 157.563 140.038 156.935C139.786 156.558 140.414 157.814 140.289 157.438V157.312C140.163 157.312 139.912 156.558 139.786 156.182C139.661 155.679 139.535 155.177 139.41 154.674C138.907 151.66 139.033 148.646 139.661 145.631C140.289 142.366 141.168 138.849 143.806 136.588C145.941 134.704 148.83 133.825 151.718 134.076C152.974 134.202 152.095 131.815 151.844 131.313C150.965 130.685 149.834 129.052 148.578 128.926Z" fill="#000005"/>
<path d="M153.602 138.221C158.501 139.351 163.274 140.23 168.172 141.11C180.606 143.37 193.166 145.254 205.726 146.887C222.808 149.022 239.89 150.53 257.097 151.158C275.686 151.911 294.274 151.409 312.738 149.525C329.945 147.641 347.403 144.25 363.48 137.718C365.49 136.839 367.499 135.96 369.509 135.081C370.514 134.578 371.644 133.197 370.765 132.066C369.886 130.936 367.75 131.564 366.62 132.066C359.461 135.206 352.05 137.844 344.389 139.854C335.974 141.989 327.433 143.622 318.766 144.752C300.806 146.887 282.594 147.766 264.507 147.138C247.426 146.636 230.47 145.38 213.514 143.37C200.451 141.863 187.514 139.979 174.578 137.718C168.674 136.714 162.897 135.332 156.994 134.327H156.742C155.235 134.076 153.602 134.578 152.598 135.834C151.97 136.462 152.095 137.342 152.598 137.97C153.1 137.844 153.351 138.095 153.602 138.221Z" fill="#000005"/>
<path d="M166.288 115.236C172.442 116.743 178.848 117.622 185.128 118.502C203.089 121.139 221.175 122.646 239.262 123.4C264.633 124.53 290.13 124.907 315.375 122.395C328.563 121.139 342.379 119.381 354.688 114.231C357.2 113.226 359.586 111.845 361.847 110.338C362.475 109.835 363.731 108.956 363.982 108.202V108.077C364.61 106.946 359.586 103.43 359.461 103.681C358.205 106.067 354.688 107.7 352.427 108.83C341.751 114.106 329.317 115.99 317.762 117.371C293.144 120.386 268.024 120.26 243.155 119.381C223.813 118.753 204.47 117.371 185.379 114.734C179.978 113.98 174.578 113.226 169.177 112.222C167.67 111.97 166.037 111.594 164.53 111.342C163.776 111.091 163.022 110.966 162.143 110.84C162.017 110.84 161.892 110.84 161.892 110.84C161.138 110.714 162.897 112.85 163.022 112.85C164.027 113.854 165.032 114.734 166.288 115.236Z" fill="#000005"/>
<path d="M254.71 111.091H269.657C270.41 111.091 271.164 111.091 271.918 110.84C272.169 110.714 272.797 110.589 272.922 110.086C272.922 109.082 270.41 108.83 269.782 108.83H254.836C254.082 108.83 253.329 108.83 252.575 109.082C252.324 109.207 251.696 109.458 251.57 109.835C251.57 110.84 254.082 111.091 254.71 111.091Z" fill="#000005"/>
<path d="M158.626 240.585C158.626 240.585 277.946 263.695 372.272 235.058C372.272 235.058 352.804 395.073 352.804 400.599C352.804 406.126 248.305 436.646 179.853 392.184L158.626 240.585Z" fill="white"/>
<path d="M156.24 241.966C160.385 242.72 164.655 243.474 168.926 244.102C180.104 245.734 191.408 247.116 202.712 248.121C218.663 249.628 234.74 250.507 250.817 250.758C269.531 251.135 288.246 250.382 306.96 248.498C326.554 246.614 345.896 243.222 364.862 238.073C367.248 237.445 369.509 236.817 371.895 236.063L369.383 235.812C368.378 244.73 367.248 253.522 366.118 262.439C363.731 281.782 361.47 301.124 359.21 320.466C356.949 339.432 354.688 358.398 352.553 377.363C351.925 383.518 351.171 389.546 350.543 395.575C350.418 397.082 350.166 398.715 350.041 400.222C350.041 400.599 349.915 401.102 349.915 401.478C349.915 401.227 349.664 401.73 349.915 401.353C349.538 401.981 350.166 401.227 349.79 401.604C349.538 401.73 349.036 401.981 349.915 401.604L349.413 401.855C348.785 402.232 349.664 401.73 349.413 401.855C349.162 401.981 348.91 402.106 348.785 402.232L348.157 402.483C347.529 402.86 348.91 402.106 348.031 402.483C347.403 402.734 346.775 402.986 346.147 403.237L345.142 403.614C344.138 403.99 345.519 403.488 344.766 403.739L342.379 404.493C340.621 404.995 338.988 405.498 337.23 406L336.476 406.126H336.225L334.718 406.502C333.587 406.754 332.457 407.13 331.326 407.382C328.94 408.01 326.679 408.512 324.293 408.889C319.018 410.019 313.742 410.898 308.342 411.652C281.714 415.294 254.208 415.294 227.958 409.266C213.514 406.126 199.698 400.725 186.761 393.314C186.007 392.812 185.254 392.435 184.5 391.933C183.998 391.682 182.742 391.179 182.365 390.677V390.551C182.239 390.174 182.239 389.923 182.239 389.546L181.611 384.648L175.206 339.055L166.79 279.144L161.39 240.836L161.138 238.952C161.013 238.073 155.11 239.706 155.361 241.338L156.491 249.126L159.38 269.347L163.274 297.23L167.67 328.254L171.814 357.644L175.08 380.503L176.713 392.435C176.713 392.686 176.713 392.938 176.838 393.063C177.341 393.817 179.099 394.57 179.853 395.073C181.486 396.078 183.118 396.957 184.751 397.836C191.282 401.478 198.19 404.493 205.224 407.005C219.04 411.778 233.233 414.792 247.802 416.048C261.493 417.304 275.434 417.43 289.125 416.299C300.806 415.42 312.361 413.787 323.79 411.275C331.829 409.642 339.616 407.507 347.278 404.493C349.664 403.614 352.05 402.483 354.186 400.976C354.814 400.599 355.316 400.097 355.567 399.343C355.567 399.092 355.567 398.966 355.567 398.715C355.567 398.966 355.567 398.715 355.567 398.464C355.818 394.445 356.321 390.551 356.823 386.532C357.702 378.996 358.582 371.46 359.461 363.924C360.591 354.127 361.722 344.456 362.852 334.659L366.62 303.008C367.876 293.086 369.006 283.038 370.262 273.115C371.267 265.077 372.146 257.164 373.151 249.126C373.779 244.478 374.282 239.957 374.784 235.31C374.784 234.682 374.91 234.054 375.035 233.551C375.161 232.546 373.026 233.3 372.523 233.3C354.06 238.701 335.22 242.469 316.129 244.478C297.54 246.488 278.951 247.493 260.237 247.242C243.909 247.116 227.706 246.362 211.504 244.981C199.698 243.976 188.017 242.594 176.336 240.962C172.819 240.459 169.302 239.957 165.786 239.329C164.153 239.078 162.646 238.701 161.013 238.45H160.762C159.254 238.45 157.873 238.826 156.617 239.706C156.24 240.71 154.984 241.715 156.24 241.966Z" fill="#000005"/>
<path d="M275.434 304.013C266.894 303.008 258.227 305.771 250.942 310.418C243.658 315.066 237.88 321.722 232.856 328.63C225.069 339.558 219.04 354.127 224.818 366.31C225.822 368.571 227.33 370.581 229.339 371.962C231.851 373.344 234.866 373.972 237.754 373.721C250.691 373.344 262.874 366.562 272.043 357.267C281.212 348.098 287.743 336.543 293.395 324.862C294.902 321.722 296.41 318.582 296.41 315.066C296.41 311.549 294.4 307.906 291.009 307.153C288.622 306.525 286.11 307.655 283.85 308.786C265.638 317.954 251.068 333.026 242.653 351.615" fill="white"/>
<path d="M276.69 302.129C255.715 299.994 238.508 315.066 227.957 331.645C222.933 339.558 218.914 348.852 219.668 358.398C219.919 362.919 221.426 367.441 224.315 371.083C227.706 375.102 232.856 375.856 237.754 375.73C257.85 374.977 274.304 361.412 285.105 345.461C287.869 341.316 290.506 336.92 292.893 332.524C295.279 328.128 297.917 323.606 299.298 318.834C300.429 314.563 299.801 309.665 296.033 306.902C291.637 303.636 285.859 305.771 281.589 308.032C265.386 316.322 251.947 329.384 243.155 345.335C242.025 347.345 241.02 349.354 240.141 351.49C238.759 354.378 244.913 354.253 245.793 352.118C252.449 337.422 263 324.862 276.313 315.819C279.579 313.558 283.096 311.549 286.864 309.79C288.371 309.162 289.753 308.66 291.26 309.916C292.641 311.172 293.521 312.805 293.646 314.689C294.274 318.959 291.762 323.104 289.878 326.746C287.869 330.891 285.608 334.91 283.347 338.804C274.806 353.122 262.497 367.19 245.667 371.083C242.025 371.962 237.503 372.716 233.861 371.46C229.967 370.204 227.957 366.185 226.953 362.542C224.566 354.378 226.827 345.586 230.595 338.05C234.991 329.384 240.894 321.722 248.179 315.442C255.464 309.288 264.758 304.892 274.429 306.022C275.811 306.148 277.695 305.771 278.449 304.515C279.202 303.259 277.821 302.254 276.69 302.129Z" fill="#000005"/>
<path d="M87.0527 491.94C92.2023 483.776 100.492 478.25 109.912 476.742C119.583 474.984 131.766 477.245 136.288 487.167C138.423 491.563 137.921 496.713 135.032 500.606C132.143 504.374 127.622 506.384 123.1 507.766C117.574 509.398 111.922 510.152 106.144 509.775C101.622 509.524 95.3423 509.022 91.9511 505.63C90.0671 503.746 89.6903 500.858 90.9463 498.471C92.2023 496.21 94.4631 494.578 97.1007 494.201C103.758 492.694 110.54 492.442 117.322 493.573C118.83 493.698 120.337 493.322 121.593 492.317C122.598 491.563 122.346 490.81 121.09 490.684C113.68 489.554 106.144 489.679 98.7335 491.312C93.0815 492.568 85.0431 495.206 84.1639 502.114C83.4103 508.268 89.9415 510.654 94.7143 511.659C101.622 513.041 108.782 513.166 115.69 512.036C126.366 510.278 143.824 504.751 143.447 491.186C143.07 485.409 139.805 480.134 134.781 477.245C129.254 473.979 122.723 473.1 116.443 473.477C102.878 474.23 88.6855 480.636 81.4007 492.442C80.2703 494.326 86.2991 493.322 87.0527 491.94Z" fill="#D1A172"/>
<path d="M27.3631 497.167C24.7255 497.544 21.8367 497.042 19.1991 496.916C16.4359 496.79 13.6727 496.916 10.9095 497.544C6.76469 498.298 2.36869 499.93 0.861492 504.326C-0.394508 508.22 1.11269 512.742 4.00149 515.505C7.26709 518.645 11.6631 520.026 16.0591 520.78C24.8511 522.162 34.8991 521.659 43.0631 517.891C46.8311 516.258 49.9711 513.495 51.9807 509.978C54.2415 506.587 53.2367 501.94 49.8455 499.679C45.7007 496.539 40.0487 497.042 35.2759 498.298C29.8751 499.805 25.7303 503.322 21.7111 507.09C21.2087 507.592 23.8463 507.466 23.9719 507.466C24.9767 507.341 26.8607 507.341 27.7399 506.587C30.6287 503.824 33.5175 500.935 37.1599 499.302C37.6623 499.051 38.1647 498.926 38.5415 498.8C39.5463 498.298 38.0391 499.051 37.9135 498.8C37.9135 498.8 39.9231 499.051 40.0487 499.177C41.5559 499.554 42.9375 500.307 44.0679 501.312C50.3479 506.587 44.0679 514.626 38.6671 517.514C33.2663 520.403 26.6095 520.403 20.5807 519.398C13.6727 518.268 6.26229 513.998 6.38789 506.085C6.51349 502.694 8.77429 499.051 12.2911 498.423C14.4263 498.298 16.6871 498.423 18.8223 498.674C21.5855 498.8 24.3487 498.8 27.1119 498.298C27.4887 498.298 30.2519 497.921 30.1263 497.293C30.0007 496.665 27.6143 497.042 27.3631 497.167Z" fill="#D1A172"/>
<path d="M271.164 0.311996C264.507 0.939996 259.106 4.4568 254.836 9.6064C250.44 15.0072 247.551 21.4128 246.421 28.1952C245.541 34.7264 247.677 41.3832 252.449 46.0304C256.217 50.0496 261.241 53.1896 264.13 57.9624C268.652 65.3728 265.135 74.2904 261.869 81.4496C261.367 82.7056 261.995 84.0872 263.251 84.464C263.377 84.464 263.377 84.464 263.502 84.5896C264.633 85.092 267.019 85.092 267.647 83.7104C270.536 77.1792 273.676 69.8944 272.169 62.484C271.038 56.5808 266.768 52.1848 262.372 48.2912C258.353 44.6488 253.831 40.8808 252.701 35.2288C251.445 28.6976 254.082 21.664 257.473 16.1376C260.613 10.988 265.512 5.336 272.043 4.708C273.299 4.5824 274.932 3.9544 274.681 2.4472C274.429 0.939997 272.42 0.186396 271.164 0.311996Z" fill="#D1A172"/>
<path d="M228.962 17.1424C227.078 24.6784 225.32 32.5912 226.827 40.3784C227.957 46.9096 231.725 52.8128 237.377 56.4552C238.382 57.0832 239.764 56.832 240.392 55.8272C240.517 55.7016 240.643 55.4504 240.643 55.3248C240.894 53.692 240.141 52.1848 238.759 51.4312C234.614 48.9192 232.605 44.1464 231.977 39.4992C230.972 32.968 232.73 26.3112 234.237 20.0312C234.489 18.3984 233.735 16.8912 232.353 16.1376C231.349 15.5096 229.967 15.6352 229.339 16.64C229.088 16.7656 228.962 17.0168 228.962 17.1424Z" fill="#D1A172"/>
</svg>
