<svg width="475" height="522" viewBox="0 0 475 522" fill="none" xmlns="http://www.w3.org/2000/svg">
<path d="M152.559 162.289L197.272 481.941C197.272 481.941 280.168 514.848 338.07 476.666L377.508 150.105L152.559 162.289Z" fill="#000005"/>
<path d="M150.8 159.902L152.056 168.443L155.322 191.679L160.095 226.094L165.872 268.044L172.278 313.888L178.809 360.486L184.838 403.566L189.988 440.116L193.63 466.366C194.258 470.511 194.76 474.656 195.388 478.801L195.514 479.303C195.765 480.81 197.398 483.699 199.031 484.327C211.968 489.477 225.909 492.617 239.6 494.878C266.729 499.274 295.743 499.022 321.616 488.598C325.133 487.216 328.524 485.583 331.79 483.825C333.423 482.946 334.93 482.066 336.563 481.187C337.442 480.685 339.577 479.806 340.08 478.801C340.205 478.424 340.205 478.047 340.205 477.67L341.084 470.386L344.978 438.106L351.007 388.62L358.04 330.09L365.325 269.426L371.982 214.538L377.006 173.342L379.518 152.994L379.644 152.115C379.769 150.985 377.257 147.091 376.001 147.217L353.644 148.473L299.888 151.362L234.827 154.878L178.432 158.27L159.969 159.274L154.192 159.526C153.187 159.4 152.182 159.526 151.177 159.651C151.052 159.651 150.926 159.651 150.8 159.651C150.298 159.651 151.931 162.414 152.056 162.54C152.559 163.168 153.438 164.801 154.317 164.801L176.674 163.545L230.431 160.656L295.492 157.139L351.76 154.125L370.224 153.12C373.112 152.994 376.127 152.994 379.016 152.618H379.392L375.624 147.594L373.866 161.661L369.47 198.462L363.19 250.46L355.905 310.246L348.62 370.157L342.34 422.406L337.944 459.71L336.688 470.386L336.312 473.274C336.312 473.651 336.312 474.028 336.186 474.405C336.312 474.154 335.056 475.033 335.432 474.782C334.553 475.284 333.674 475.912 332.92 476.414C331.162 477.419 329.529 478.424 327.771 479.303C324.505 481.062 321.114 482.569 317.597 483.95C310.815 486.588 303.781 488.598 296.496 489.979C282.555 492.491 268.362 493.245 254.295 492.114C235.329 490.733 216.615 486.839 198.528 480.559C197.524 480.182 196.644 479.931 195.765 479.554L199.156 484.578L198.026 476.038L194.76 452.676L189.988 418.262L184.084 376.311L177.679 330.467L171.148 283.87L165.119 240.789L159.969 204.239L156.327 177.989C155.699 173.844 155.196 169.699 154.568 165.554L154.443 165.052C154.066 163.796 153.438 162.54 152.559 161.661C152.433 161.033 150.675 159.274 150.8 159.902Z" fill="#000005"/>
<path d="M149.544 131.391C149.544 131.391 140.627 130.512 137.989 139.429C135.352 148.347 136.231 153.748 137.989 157.265C139.748 160.781 151.303 167.062 235.078 175.979C318.853 184.897 384.668 155.506 384.668 150.105C384.668 144.705 384.668 131.391 378.388 131.391C372.108 131.391 365.074 122.473 365.074 113.556C365.074 104.638 355.277 90.4455 315.211 81.5279C275.144 72.6103 169.138 96.5999 161.979 107.401C157.08 114.937 152.936 122.976 149.544 131.391Z" fill="white"/>
<path d="M148.163 128.628C144.897 128.377 141.757 129.381 139.371 131.517C136.859 133.903 135.854 137.043 135.1 140.309C134.347 143.7 134.096 147.091 134.472 150.482C134.975 154.753 136.859 159.023 140.501 161.409C143.264 163.042 146.279 164.298 149.419 165.052C155.824 166.81 162.356 168.317 168.887 169.448C180.191 171.457 191.746 173.09 203.176 174.597C220.132 176.733 237.213 178.993 254.169 179.747C284.188 181.129 314.206 178.114 343.345 170.578C353.016 168.192 362.562 165.052 371.856 161.284C374.871 160.028 377.885 158.646 380.774 157.013C382.532 156.134 384.165 155.004 385.672 153.748C387.431 151.989 386.803 149.101 386.677 146.84C386.426 141.313 385.672 134.782 381.528 130.637C380.774 129.758 379.769 129.13 378.764 128.753C377.634 128.377 376.378 128.502 375.122 128.125C372.484 127.121 370.349 125.111 369.093 122.599C367.837 120.087 367.209 117.198 367.209 114.435C367.084 113.054 366.832 111.546 366.456 110.29C364.195 103.005 358.292 97.2279 352.137 93.0831C340.959 85.5471 327.394 81.6535 314.457 78.7647C305.665 77.0063 296.748 76.3783 287.83 76.7551C276.652 77.0063 265.473 78.0111 254.42 79.5183C232.189 82.2815 210.209 86.8031 188.606 92.8319C181.196 94.7159 174.036 97.2279 167.003 100.368C164.993 101.247 163.109 102.252 161.476 103.633C160.472 104.638 159.592 105.894 158.839 107.15C156.704 110.541 154.82 113.933 153.061 117.449C151.177 121.217 149.419 124.986 147.786 128.879C147.032 130.638 151.052 135.159 151.68 133.526C153.187 129.633 155.071 125.865 156.955 122.097C158.713 118.705 160.472 115.44 162.481 112.174C162.984 111.295 163.612 110.416 164.24 109.537C164.491 109.285 164.24 109.537 164.24 109.411C164.491 109.16 164.742 108.909 164.993 108.657C166.626 107.401 168.51 106.271 170.394 105.517C173.283 104.136 176.423 103.006 179.437 101.875C198.403 95.3439 218.248 91.0735 237.967 87.8079C258.942 84.1655 280.671 81.2767 302.023 82.2815C313.201 82.9095 324.254 85.2959 334.804 89.0639C340.205 90.8223 345.48 93.2087 350.504 96.0975C352.514 97.2279 354.398 98.6095 356.156 99.9911L356.91 100.619C357.287 100.87 357.538 101.121 357.915 101.498C358.292 101.875 358.668 102.126 358.92 102.503L359.296 102.88C358.794 102.377 359.422 103.006 359.548 103.131L360.301 104.01C360.427 104.136 361.306 105.266 360.678 104.513L361.306 105.266C361.432 105.517 362.06 106.648 361.557 105.643C361.934 106.271 362.185 106.773 362.436 107.401C362.06 106.522 362.436 107.401 362.562 107.653C362.688 107.904 362.813 108.281 362.939 108.657C363.064 109.034 362.813 108.155 363.064 108.909C363.064 109.16 363.19 109.411 363.19 109.662C363.19 109.913 363.316 110.165 363.316 110.541C363.316 110.918 363.316 110.918 363.316 110.416V110.918C363.316 114.058 363.944 117.198 365.2 120.213C367.712 125.99 372.861 133.401 379.769 133.903C380.146 133.903 380.523 133.903 380.9 134.029C380.9 134.029 381.528 134.28 381.276 134.154C381.904 134.405 380.9 134.154 381.528 134.405C381.402 134.405 381.276 134.029 381.151 133.903C381.653 134.28 381.025 133.526 381.276 134.154C381.528 134.531 381.653 135.033 381.779 135.41C382.407 137.797 382.784 140.183 382.784 142.569C382.784 143.7 382.909 144.83 382.909 145.961C382.909 146.463 382.909 147.091 382.909 147.593C382.909 148.096 382.784 148.347 382.909 147.845C382.909 147.97 382.784 148.222 382.658 148.347C382.909 148.096 382.407 148.598 382.658 148.347C382.532 148.473 382.407 148.598 382.281 148.724C380.774 149.98 379.267 151.11 377.508 151.989C370.977 155.381 364.069 158.269 357.036 160.53C332.167 168.694 306.293 173.341 280.168 174.346C263.338 175.1 246.382 174.472 229.677 172.588C214.982 170.955 200.287 169.322 185.592 167.187C176.423 165.805 167.128 164.424 158.085 162.414C153.312 161.535 148.54 160.279 143.892 158.646C143.139 158.395 142.511 158.144 141.883 157.767L141.004 157.39L140.627 157.265C141.129 157.516 140.124 157.013 140.627 157.265L139.496 156.511C139.873 156.762 138.868 156.009 139.496 156.511C139.371 156.386 139.245 156.26 139.12 156.134C138.994 156.009 139.748 156.888 139.371 156.385C138.994 155.883 139.999 157.265 139.622 156.637C139.371 156.26 139.999 157.516 139.873 157.139V157.013C139.748 157.013 139.496 156.26 139.371 155.883C139.245 155.381 139.12 154.878 138.994 154.376C138.492 151.361 138.617 148.347 139.245 145.333C139.873 142.067 140.752 138.55 143.39 136.289C145.525 134.405 148.414 133.526 151.303 133.777C152.559 133.903 151.68 131.517 151.428 131.014C150.549 130.386 149.419 128.753 148.163 128.628Z" fill="#000005"/>
<path d="M153.187 137.922C158.085 139.053 162.858 139.932 167.756 140.811C180.191 143.072 192.751 144.956 205.311 146.589C222.392 148.724 239.474 150.231 256.681 150.859C275.27 151.613 293.859 151.11 312.322 149.226C329.529 147.342 346.988 143.951 363.064 137.42C365.074 136.541 367.084 135.662 369.093 134.782C370.098 134.28 371.228 132.898 370.349 131.768C369.47 130.637 367.335 131.265 366.204 131.768C359.045 134.908 351.635 137.546 343.973 139.555C335.558 141.69 327.017 143.323 318.351 144.454C300.39 146.589 282.178 147.468 264.092 146.84C247.01 146.337 230.054 145.081 213.098 143.072C200.036 141.565 187.099 139.681 174.162 137.42C168.259 136.415 162.481 135.034 156.578 134.029H156.327C154.82 133.778 153.187 134.28 152.182 135.536C151.554 136.164 151.68 137.043 152.182 137.671C152.684 137.546 152.936 137.797 153.187 137.922Z" fill="#000005"/>
<path d="M165.872 114.938C172.027 116.445 178.432 117.324 184.712 118.203C202.673 120.841 220.76 122.348 238.846 123.102C264.217 124.232 289.714 124.609 314.96 122.097C328.148 120.841 341.964 119.082 354.272 113.933C356.784 112.928 359.171 111.546 361.432 110.039C362.06 109.537 363.316 108.657 363.567 107.904V107.778C364.195 106.648 359.171 103.131 359.045 103.382C357.789 105.769 354.272 107.401 352.012 108.532C341.336 113.807 328.901 115.691 317.346 117.073C292.728 120.087 267.608 119.962 242.74 119.082C223.397 118.454 204.055 117.073 184.964 114.435C179.563 113.682 174.162 112.928 168.761 111.923C167.254 111.672 165.621 111.295 164.114 111.044C163.36 110.793 162.607 110.667 161.728 110.542C161.602 110.542 161.476 110.542 161.476 110.542C160.723 110.416 162.481 112.551 162.607 112.551C163.612 113.556 164.616 114.435 165.872 114.938Z" fill="#000005"/>
<path d="M254.295 110.793H269.241C269.995 110.793 270.748 110.793 271.502 110.541C271.753 110.416 272.381 110.29 272.507 109.788C272.507 108.783 269.995 108.532 269.367 108.532H254.42C253.667 108.532 252.913 108.532 252.16 108.783C251.908 108.909 251.28 109.16 251.155 109.537C251.155 110.541 253.667 110.793 254.295 110.793Z" fill="#000005"/>
<path d="M158.211 240.286C158.211 240.286 277.531 263.397 371.856 234.76C371.856 234.76 352.388 394.774 352.388 400.301C352.388 405.827 247.889 436.348 179.437 391.885L158.211 240.286Z" fill="white"/>
<path d="M155.824 241.668C159.969 242.421 164.24 243.175 168.51 243.803C179.688 245.436 190.992 246.817 202.296 247.822C218.248 249.329 234.324 250.209 250.401 250.46C269.116 250.837 287.83 250.083 306.544 248.199C326.138 246.315 345.48 242.924 364.446 237.774C366.832 237.146 369.093 236.518 371.48 235.765L368.968 235.513C367.963 244.431 366.832 253.223 365.702 262.141C363.316 281.483 361.055 300.825 358.794 320.168C356.533 339.133 354.272 358.099 352.137 377.065C351.509 383.219 350.756 389.248 350.128 395.277C350.002 396.784 349.751 398.417 349.625 399.924C349.625 400.301 349.5 400.803 349.5 401.18C349.5 400.929 349.248 401.431 349.5 401.054C349.123 401.682 349.751 400.929 349.374 401.306C349.123 401.431 348.62 401.682 349.5 401.306L348.997 401.557C349.248 401.431 348.369 401.934 348.997 401.557C348.746 401.682 348.495 401.808 348.369 401.934L347.741 402.185C347.113 402.562 348.495 401.808 347.616 402.185C346.988 402.436 346.36 402.687 345.732 402.938L344.727 403.315C343.722 403.692 345.104 403.19 344.35 403.441L341.964 404.194C340.205 404.697 338.572 405.199 336.814 405.702L336.06 405.827H335.809L334.302 406.204C333.172 406.455 332.041 406.832 330.911 407.083C328.524 407.711 326.264 408.213 323.877 408.59C318.602 409.721 313.327 410.6 307.926 411.354C281.299 414.996 253.792 414.996 227.542 408.967C213.098 405.827 199.282 400.426 186.345 393.016C185.592 392.513 184.838 392.137 184.084 391.634C183.582 391.383 182.326 390.881 181.949 390.378V390.253C181.824 389.876 181.824 389.625 181.824 389.248L181.196 384.349L174.79 338.757L166.375 278.845L160.974 240.537L160.723 238.653C160.597 237.774 154.694 239.407 154.945 241.04L156.076 248.827L158.964 269.049L162.858 296.932L167.254 327.955L171.399 357.345L174.664 380.205L176.297 392.137C176.297 392.388 176.297 392.639 176.423 392.765C176.925 393.518 178.684 394.272 179.437 394.774C181.07 395.779 182.703 396.658 184.336 397.537C190.867 401.18 197.775 404.194 204.808 406.706C218.624 411.479 232.817 414.494 247.387 415.75C261.077 417.006 275.019 417.131 288.709 416.001C300.39 415.122 311.945 413.489 323.375 410.977C331.413 409.344 339.2 407.209 346.862 404.194C349.248 403.315 351.635 402.185 353.77 400.677C354.398 400.301 354.9 399.798 355.152 399.045C355.152 398.794 355.152 398.668 355.152 398.417C355.152 398.668 355.152 398.417 355.152 398.165C355.403 394.146 355.905 390.253 356.408 386.233C357.287 378.697 358.166 371.161 359.045 363.625C360.176 353.829 361.306 344.158 362.436 334.361L366.204 302.709C367.46 292.787 368.591 282.739 369.847 272.817C370.852 264.778 371.731 256.866 372.736 248.827C373.364 244.18 373.866 239.658 374.368 235.011C374.368 234.383 374.494 233.755 374.62 233.253C374.745 232.248 372.61 233.001 372.108 233.001C353.644 238.402 334.804 242.17 315.713 244.18C297.124 246.189 278.536 247.194 259.821 246.943C243.493 246.818 227.291 246.064 211.088 244.682C199.282 243.677 187.601 242.296 175.92 240.663C172.404 240.161 168.887 239.658 165.37 239.03C163.737 238.779 162.23 238.402 160.597 238.151H160.346C158.839 238.151 157.457 238.528 156.201 239.407C155.824 240.412 154.568 241.417 155.824 241.668Z" fill="#000005"/>
<path d="M275.019 303.714C266.478 302.709 257.812 305.473 250.527 310.12C243.242 314.767 237.464 321.424 232.44 328.332C224.653 339.259 218.624 353.829 224.402 366.012C225.407 368.273 226.914 370.282 228.924 371.664C231.436 373.045 234.45 373.673 237.339 373.422C250.276 373.045 262.459 366.263 271.628 356.969C280.796 347.8 287.328 336.245 292.98 324.564C294.487 321.424 295.994 318.284 295.994 314.767C295.994 311.25 293.984 307.608 290.593 306.854C288.207 306.226 285.695 307.357 283.434 308.487C265.222 317.656 250.652 332.728 242.237 351.317" fill="white"/>
<path d="M276.275 301.83C255.3 299.695 238.092 314.767 227.542 331.346C222.518 339.259 218.499 348.553 219.252 358.099C219.504 362.621 221.011 367.142 223.9 370.785C227.291 374.804 232.44 375.557 237.339 375.432C257.435 374.678 273.888 361.113 284.69 345.162C287.453 341.017 290.091 336.621 292.477 332.225C294.864 327.829 297.501 323.308 298.883 318.535C300.013 314.265 299.385 309.366 295.617 306.603C291.221 303.337 285.444 305.473 281.173 307.733C264.971 316.023 251.532 329.085 242.74 345.037C241.609 347.046 240.604 349.056 239.725 351.191C238.344 354.08 244.498 353.954 245.377 351.819C252.034 337.124 262.584 324.564 275.898 315.521C279.164 313.26 282.68 311.25 286.448 309.492C287.956 308.864 289.337 308.361 290.844 309.617C292.226 310.873 293.105 312.506 293.231 314.39C293.859 318.661 291.347 322.805 289.463 326.448C287.453 330.593 285.192 334.612 282.932 338.505C274.391 352.824 262.082 366.891 245.252 370.785C241.609 371.664 237.088 372.417 233.445 371.161C229.552 369.905 227.542 365.886 226.537 362.244C224.151 354.08 226.412 345.288 230.18 337.752C234.576 329.085 240.479 321.424 247.764 315.144C255.048 308.989 264.343 304.593 274.014 305.724C275.396 305.849 277.28 305.473 278.033 304.217C278.787 302.961 277.405 301.956 276.275 301.83Z" fill="#000005"/>
<path d="M403.131 447.401C389.817 446.396 375.499 445.642 363.316 452.299C358.668 454.811 352.388 459.207 353.393 465.361C354.398 471.516 360.552 476.665 365.953 479.177C371.354 481.689 377.383 482.443 383.286 482.443C389.817 482.569 396.474 481.815 402.754 480.057C408.28 478.424 414.435 475.661 417.7 470.637C421.092 465.361 419.333 459.207 414.812 455.188C409.662 450.666 401.875 451.043 395.469 452.173C388.31 453.304 381.528 456.067 375.75 460.337C374.745 460.965 378.764 465.864 380.02 464.985C384.542 461.719 389.692 459.333 395.092 457.825C400.242 456.318 405.768 455.941 411.044 456.569C412.174 456.821 413.304 457.072 414.435 457.574C415.063 457.825 414.686 457.826 414.56 457.449C414.812 457.951 414.937 458.453 415.063 459.081C415.44 461.468 414.937 463.98 413.556 465.989C410.667 470.511 405.392 473.149 400.493 474.781C395.092 476.54 389.315 477.419 383.663 477.545C378.388 477.921 372.987 477.419 367.837 476.289C363.818 475.158 358.166 473.149 357.915 468.25C357.664 463.101 363.818 459.207 367.712 457.072C379.644 450.415 393.836 451.42 407.024 452.299C408.155 452.425 406.522 450.038 406.396 449.913C405.517 448.908 404.387 447.526 403.131 447.401Z" fill="#D1A172"/>
<path d="M86.6372 491.642C91.7868 483.478 100.076 477.951 109.496 476.444C119.168 474.686 131.351 476.946 135.872 486.869C138.008 491.265 137.505 496.414 134.616 500.308C131.728 504.076 127.206 506.086 122.684 507.467C117.158 509.1 111.506 509.854 105.728 509.477C101.207 509.226 94.9268 508.723 91.5356 505.332C89.6516 503.448 89.2748 500.559 90.5308 498.173C91.7868 495.912 94.0476 494.279 96.6852 493.902C103.342 492.395 110.124 492.144 116.907 493.274C118.414 493.4 119.921 493.023 121.177 492.018C122.182 491.265 121.931 490.511 120.675 490.386C113.264 489.255 105.728 489.381 98.318 491.014C92.666 492.27 84.6276 494.907 83.7484 501.815C82.9948 507.97 89.526 510.356 94.2988 511.361C101.207 512.742 108.366 512.868 115.274 511.738C125.95 509.979 143.408 504.453 143.032 490.888C142.655 485.11 139.389 479.835 134.365 476.946C128.839 473.681 122.308 472.802 116.028 473.178C102.463 473.932 88.27 480.338 80.9852 492.144C79.8548 494.028 85.8836 493.023 86.6372 491.642Z" fill="#D1A172"/>
<path d="M437.043 470.009C440.308 464.231 446.714 461.468 452.994 460.337C456.511 459.709 460.153 459.584 463.67 460.212C464.549 460.337 465.428 460.589 466.182 460.965C467.815 461.719 465.931 461.091 466.056 460.714C466.056 460.714 466.559 461.217 466.433 461.091C467.312 462.347 468.066 463.729 468.568 465.236C470.578 471.641 467.564 478.173 462.037 481.815C455.883 485.834 447.593 485.583 441.313 481.941C440.936 481.815 440.56 481.564 440.308 481.313C440.057 481.187 440.057 481.187 440.308 481.313L440.057 480.936C439.68 479.931 439.178 479.052 439.68 477.921C440.434 476.289 442.695 475.786 444.328 475.409C449.226 474.153 454.25 473.651 459.274 473.902C459.902 473.902 458.018 472.144 457.892 472.018C457.139 471.39 455.757 470.009 454.627 470.009C449.603 469.758 444.453 470.26 439.555 471.516C437.796 472.018 435.284 472.395 434.531 474.405C433.777 476.414 435.284 478.298 436.666 479.68C442.946 486.085 452.994 490.481 461.912 488.095C469.573 485.96 475.476 478.926 474.095 470.762C472.588 462.221 463.419 456.318 455.129 456.193C446.714 455.941 436.415 458.453 431.893 466.366C431.516 467.12 436.666 470.511 437.043 470.009Z" fill="#D1A172"/>
<path d="M26.9476 496.869C24.31 497.245 21.4212 496.743 18.7836 496.617C16.0204 496.492 13.2572 496.617 10.494 497.245C6.34916 497.999 1.95316 499.632 0.445965 504.028C-0.810035 507.921 0.697165 512.443 3.58596 515.206C6.85156 518.346 11.2476 519.728 15.6436 520.481C24.4356 521.863 34.4836 521.361 42.6476 517.593C46.4156 515.96 49.5556 513.197 51.5652 509.68C53.826 506.289 52.8212 501.641 49.43 499.381C45.2852 496.241 39.6332 496.743 34.8604 497.999C29.4596 499.506 25.3148 503.023 21.2956 506.791C20.7932 507.293 23.4308 507.168 23.5564 507.168C24.5612 507.042 26.4452 507.042 27.3244 506.289C30.2132 503.525 33.102 500.637 36.7444 499.004C37.2468 498.753 37.7492 498.627 38.126 498.501C39.1308 497.999 37.6236 498.753 37.498 498.501C37.498 498.501 39.5076 498.753 39.6332 498.878C41.1404 499.255 42.522 500.009 43.6524 501.013C49.9324 506.289 43.6524 514.327 38.2516 517.216C32.8508 520.105 26.194 520.105 20.1652 519.1C13.2572 517.969 5.84677 513.699 5.97237 505.786C6.09797 502.395 8.35876 498.753 11.8756 498.125C14.0108 497.999 16.2716 498.125 18.4068 498.376C21.17 498.501 23.9332 498.501 26.6964 497.999C27.0732 497.999 29.8364 497.622 29.7108 496.994C29.5852 496.366 27.1988 496.743 26.9476 496.869Z" fill="#D1A172"/>
<path d="M270.748 0.0135033C264.091 0.641503 258.691 4.15831 254.42 9.30791C250.024 14.7087 247.135 21.1143 246.005 27.8967C245.126 34.4279 247.261 41.0847 252.034 45.7319C255.802 49.7511 260.826 52.8911 263.715 57.6639C268.236 65.0743 264.719 73.9919 261.454 81.1511C260.951 82.4071 261.579 83.7887 262.835 84.1655C262.961 84.1655 262.961 84.1655 263.087 84.2911C264.217 84.7935 266.603 84.7935 267.231 83.4119C270.12 76.8807 273.26 69.5959 271.753 62.1855C270.623 56.2823 266.352 51.8863 261.956 47.9927C257.937 44.3503 253.415 40.5823 252.285 34.9303C251.029 28.3991 253.667 21.3655 257.058 15.8391C260.198 10.6895 265.096 5.0375 271.627 4.4095C272.883 4.2839 274.516 3.6559 274.265 2.1487C274.014 0.641504 272.004 -0.112097 270.748 0.0135033Z" fill="#D1A172"/>
<path d="M228.547 16.8439C226.663 24.3799 224.904 32.2927 226.411 40.0799C227.542 46.6111 231.31 52.5143 236.962 56.1567C237.967 56.7847 239.348 56.5335 239.976 55.5287C240.102 55.4031 240.227 55.1519 240.227 55.0263C240.479 53.3935 239.725 51.8863 238.343 51.1327C234.199 48.6207 232.189 43.8479 231.561 39.2007C230.556 32.6695 232.315 26.0127 233.822 19.7327C234.073 18.0999 233.319 16.5927 231.938 15.8391C230.933 15.2111 229.551 15.3367 228.923 16.3415C228.672 16.4671 228.547 16.7183 228.547 16.8439Z" fill="#D1A172"/>
</svg>
