<svg width="30" height="30" viewBox="0 0 30 30" fill="none" xmlns="http://www.w3.org/2000/svg">
<path fill-rule="evenodd" clip-rule="evenodd" d="M0 8.37209C0 3.74831 3.74831 0 8.37209 0H21.6279C26.2517 0 30 3.74831 30 8.37209V21.6279C30 26.2517 26.2517 30 21.6279 30H8.37209C3.74831 30 0 26.2517 0 21.6279V8.37209Z" fill="black"/>
<path d="M19.7561 11.1429C19.6983 11.1339 19.6405 11.1339 19.5826 11.1429C18.302 11.0983 17.2858 9.96633 17.2858 8.57589C17.2858 7.1587 18.3516 6 19.6735 6C20.9872 6 22.0613 7.14979 22.0613 8.57589C22.053 9.96633 21.0368 11.0983 19.7561 11.1429Z" fill="white"/>
<path d="M22.5644 16.9883C21.6443 17.629 20.3546 17.8682 19.1635 17.7059C19.4757 17.0054 19.64 16.228 19.6482 15.4079C19.6482 14.5537 19.4674 13.7421 19.1224 13.0331C20.3382 12.8622 21.6279 13.1014 22.5561 13.7421C23.854 14.6306 23.854 16.0914 22.5644 16.9883Z" fill="white"/>
<path d="M10.4029 11.1429C10.4608 11.1339 10.5188 11.1339 10.5767 11.1429C11.8596 11.0983 12.8776 9.96633 12.8776 8.57589C12.8776 7.14979 11.8099 6 10.4857 6C9.16971 6 8.10205 7.14979 8.10205 8.57589C8.10205 9.96633 9.12005 11.0983 10.4029 11.1429Z" fill="white"/>
<path d="M10.5498 15.4037C10.5498 16.2308 10.7135 17.0152 11.0096 17.723C9.91079 17.8509 8.76518 17.5951 7.9235 16.9897C6.69217 16.0943 6.69217 14.6362 7.9235 13.7409C8.75739 13.1269 9.93417 12.8797 11.0408 13.0161C10.7213 13.7324 10.5498 14.5424 10.5498 15.4037Z" fill="white"/>
<path d="M15.1882 18.1224C15.12 18.1139 15.0432 18.1139 14.9664 18.1224C13.3968 18.0711 12.1428 16.7792 12.1428 15.1879C12.1514 13.5624 13.4565 12.2449 15.0859 12.2449C16.7067 12.2449 18.0204 13.5624 18.0204 15.1879C18.0118 16.7792 16.7664 18.0711 15.1882 18.1224Z" fill="white"/>
<path d="M12.7027 19.9879C11.4664 20.882 11.4664 22.3514 12.7027 23.2365C14.1109 24.2545 16.4197 24.2545 17.8279 23.2365C19.0642 22.3425 19.0642 20.8731 17.8279 19.9879C16.4279 18.97 14.1191 18.97 12.7027 19.9879Z" fill="white"/>
</svg>
