<svg width="30" height="30" viewBox="0 0 30 30" fill="none" xmlns="http://www.w3.org/2000/svg">
<path fill-rule="evenodd" clip-rule="evenodd" d="M0 8.37209C0 3.74831 3.74831 0 8.37209 0H21.6279C26.2517 0 30 3.74831 30 8.37209V21.6279C30 26.2517 26.2517 30 21.6279 30H8.37209C3.74831 30 0 26.2517 0 21.6279V8.37209Z" fill="black"/>
<path d="M11.8889 10H10.9444C10.4228 10 10 10.4477 10 11V14.3333C10 14.7661 10.1326 15.1871 10.3778 15.5333L12.4556 18.4667C12.7008 18.8129 12.8333 19.2339 12.8333 19.6667V21C12.8333 22.1046 13.679 23 14.7222 23C15.7655 23 16.6111 22.1046 16.6111 21V19.6667C16.6111 19.2339 16.7437 18.8129 16.9889 18.4667L19.0667 15.5333C19.3118 15.1871 19.4444 14.7661 19.4444 14.3333V11C19.4444 10.4477 19.0216 10 18.5 10H17.5556M11.8889 10V6V10ZM11.8889 10H17.5556H11.8889ZM17.5556 10V6V10Z" fill="white"/>
<path d="M11.8889 10H10.9444C10.4228 10 10 10.4477 10 11V14.3333C10 14.7661 10.1326 15.1871 10.3778 15.5333L12.4556 18.4667C12.7008 18.8129 12.8333 19.2339 12.8333 19.6667V21C12.8333 22.1046 13.679 23 14.7222 23C15.7655 23 16.6111 22.1046 16.6111 21V19.6667C16.6111 19.2339 16.7437 18.8129 16.9889 18.4667L19.0667 15.5333C19.3118 15.1871 19.4444 14.7661 19.4444 14.3333V11C19.4444 10.4477 19.0216 10 18.5 10H17.5556M11.8889 10V6M11.8889 10H17.5556M17.5556 10V6" stroke="white" stroke-width="2" stroke-linecap="round" stroke-linejoin="round"/>
</svg>
