<svg width="180" height="30" viewBox="0 0 180 30" fill="none" xmlns="http://www.w3.org/2000/svg">
<path d="M152.464 23.2584V10.2528H150.526V6.40449H154.514V9.07303H155.806C156.331 8.11797 157.061 7.38764 157.997 6.88202C158.952 6.35767 160.104 6.0955 161.452 6.0955C162.782 6.0955 163.915 6.34831 164.851 6.85393C165.806 7.35955 166.574 8.11797 167.155 9.12921H167.239C168.475 7.10674 170.404 6.0955 173.026 6.0955C175.142 6.0955 176.808 6.71348 178.026 7.94943C179.243 9.16666 179.851 10.8333 179.851 12.9494V23.2584H176.031V13.6236C176.031 10.8521 174.702 9.46629 172.042 9.46629C169.383 9.46629 168.054 10.8521 168.054 13.6236V23.2584H164.233V13.6236C164.233 10.8521 162.894 9.46629 160.217 9.46629C158.924 9.46629 157.941 9.82209 157.267 10.5337C156.612 11.2266 156.284 12.2566 156.284 13.6236V23.2584H152.464Z" fill="#262626"/>
<path d="M143.387 23.2584V6.40449H147.207V23.2584H143.387ZM145.297 4.38202C144.697 4.38202 144.182 4.17603 143.752 3.76405C143.321 3.33333 143.106 2.80899 143.106 2.19101C143.106 1.59176 143.312 1.07678 143.724 0.646067C144.154 0.215356 144.679 0 145.297 0C145.896 0 146.411 0.215356 146.842 0.646067C147.272 1.05805 147.488 1.57303 147.488 2.19101C147.488 2.79026 147.272 3.30524 146.842 3.73595C146.43 4.16667 145.915 4.38202 145.297 4.38202Z" fill="#262626"/>
<path d="M135.358 23.2584C134.328 23.2584 133.523 22.9963 132.942 22.4719C132.38 21.9476 132.099 21.1517 132.099 20.0843V9.38202H129.066V6.4045H132.127V1.34831H135.892V6.4045H140.077V9.38202H135.92V20.2528H140.498V23.2584H135.358Z" fill="#262626"/>
<path d="M120.46 23.5955C118.063 23.5955 116.171 23.0993 114.785 22.1067C113.4 21.0955 112.641 19.691 112.51 17.8933H116.246C116.377 18.8109 116.799 19.4944 117.51 19.9438C118.222 20.3933 119.252 20.618 120.6 20.618C122.922 20.618 124.083 19.9251 124.083 18.5393C124.083 17.9775 123.905 17.5375 123.549 17.2191C123.194 16.9008 122.604 16.6667 121.78 16.5169L118.044 15.8146C114.804 15.1966 113.184 13.661 113.184 11.2079C113.184 9.63483 113.802 8.38951 115.038 7.47191C116.274 6.53558 117.969 6.06741 120.122 6.06741C122.295 6.06741 124.018 6.54494 125.291 7.5C126.583 8.45505 127.304 9.78464 127.454 11.4888H123.774C123.568 10.6273 123.156 9.99064 122.538 9.57865C121.939 9.16667 121.068 8.96067 119.926 8.96067C118.915 8.96067 118.137 9.12921 117.594 9.46629C117.051 9.80337 116.78 10.2903 116.78 10.927C116.78 11.3951 116.948 11.779 117.285 12.0786C117.641 12.3595 118.194 12.5749 118.943 12.7247L122.707 13.4551C124.411 13.7734 125.656 14.3258 126.443 15.1124C127.229 15.8802 127.622 16.9195 127.622 18.2303C127.622 19.9157 127.005 21.236 125.769 22.191C124.533 23.1273 122.763 23.5955 120.46 23.5955Z" fill="#262626"/>
<path d="M105.399 23.2584V6.40449H109.22V23.2584H105.399ZM107.31 4.38202C106.71 4.38202 106.195 4.17603 105.765 3.76405C105.334 3.33333 105.119 2.80899 105.119 2.19101C105.119 1.59176 105.325 1.07678 105.737 0.646067C106.167 0.215356 106.692 0 107.31 0C107.909 0 108.424 0.215356 108.854 0.646067C109.285 1.05805 109.501 1.57303 109.501 2.19101C109.501 2.79026 109.285 3.30524 108.854 3.73595C108.443 4.16667 107.928 4.38202 107.31 4.38202Z" fill="#262626"/>
<path d="M84.8833 30V10.2528H82.9451V6.40449H86.9338V9.07303H88.1136C88.6754 8.09925 89.4526 7.35955 90.4451 6.85393C91.4376 6.32958 92.6267 6.06741 94.0125 6.06741C95.7166 6.06741 97.1586 6.43258 98.3383 7.16292C99.5368 7.87453 100.445 8.88577 101.063 10.1966C101.7 11.5075 102.018 13.0524 102.018 14.8315C102.018 16.6105 101.709 18.1648 101.091 19.4944C100.492 20.8052 99.6117 21.8165 98.4507 22.5281C97.3084 23.2397 95.932 23.5955 94.3215 23.5955C93.0481 23.5955 91.9338 23.3521 90.9788 22.8652C90.0425 22.3596 89.3215 21.6479 88.8159 20.7303H88.7035V30H84.8833ZM93.3383 20.309C94.9114 20.309 96.1099 19.8221 96.9338 18.8483C97.7765 17.8745 98.1979 16.5356 98.1979 14.8315C98.1979 13.1273 97.7765 11.7884 96.9338 10.8146C96.1099 9.84082 94.9114 9.35393 93.3383 9.35393C91.9338 9.35393 90.8102 9.75655 89.9675 10.5618C89.1248 11.367 88.7035 12.4532 88.7035 13.8202V15.8427C88.7035 17.2097 89.1248 18.2959 89.9675 19.1011C90.8102 19.9064 91.9338 20.309 93.3383 20.309Z" fill="#262626"/>
<path d="M71.8733 23.5955C70.0943 23.5955 68.54 23.2397 67.2104 22.5281C65.8995 21.7978 64.8789 20.7772 64.1486 19.4663C63.4183 18.1554 63.0531 16.6105 63.0531 14.8315C63.0531 13.0524 63.4089 11.5075 64.1205 10.1966C64.8509 8.88577 65.8808 7.87453 67.2104 7.16292C68.54 6.43258 70.1037 6.06741 71.9014 6.06741C73.7179 6.06741 75.2816 6.42322 76.5924 7.13483C77.9033 7.84644 78.9145 8.85768 79.6261 10.1685C80.3377 11.4794 80.6936 13.0337 80.6936 14.8315C80.6936 16.6105 80.3377 18.1648 79.6261 19.4944C78.9145 20.8052 77.8939 21.8165 76.5643 22.5281C75.2535 23.2397 73.6898 23.5955 71.8733 23.5955ZM71.8733 20.2809C73.4651 20.2809 74.6917 19.794 75.5531 18.8202C76.4333 17.8464 76.8733 16.5169 76.8733 14.8315C76.8733 13.1086 76.4333 11.7697 75.5531 10.8146C74.6917 9.85955 73.4651 9.38202 71.8733 9.38202C70.3003 9.38202 69.0737 9.86891 68.1935 10.8427C67.3134 11.7978 66.8733 13.1273 66.8733 14.8315C66.8733 16.5169 67.3134 17.8464 68.1935 18.8202C69.0737 19.794 70.3003 20.2809 71.8733 20.2809Z" fill="#262626"/>
<path d="M56.0916 23.2584C55.0616 23.2584 54.2564 22.9963 53.6758 22.4719C53.114 21.9476 52.8331 21.1517 52.8331 20.0843V9.38202H49.7994V6.4045H52.8612V1.34831H56.6253V6.4045H60.8107V9.38202H56.6534V20.2528H61.232V23.2584H56.0916Z" fill="#262626"/>
<path d="M30.9968 30V10.2528H29.0586V6.40449H33.0474V9.07303H34.2271C34.7889 8.09925 35.5661 7.35955 36.5586 6.85393C37.5511 6.32958 38.7402 6.06741 40.126 6.06741C41.8301 6.06741 43.2721 6.43258 44.4519 7.16292C45.6504 7.87453 46.5586 8.88577 47.1766 10.1966C47.8133 11.5075 48.1316 13.0524 48.1316 14.8315C48.1316 16.6105 47.8226 18.1648 47.2047 19.4944C46.6054 20.8052 45.7253 21.8165 44.5642 22.5281C43.4219 23.2397 42.0455 23.5955 40.435 23.5955C39.1616 23.5955 38.0474 23.3521 37.0923 22.8652C36.156 22.3596 35.435 21.6479 34.9294 20.7303H34.817V30H30.9968ZM39.4519 20.309C41.0249 20.309 42.2234 19.8221 43.0474 18.8483C43.8901 17.8745 44.3114 16.5356 44.3114 14.8315C44.3114 13.1273 43.8901 11.7884 43.0474 10.8146C42.2234 9.84082 41.0249 9.35393 39.4519 9.35393C38.0474 9.35393 36.9238 9.75655 36.0811 10.5618C35.2384 11.367 34.817 12.4532 34.817 13.8202V15.8427C34.817 17.2097 35.2384 18.2959 36.0811 19.1011C36.9238 19.9064 38.0474 20.309 39.4519 20.309Z" fill="#262626"/>
<path d="M16.3435 23.5674C14.4147 23.5674 12.8884 23.0899 11.7648 22.1348C10.66 21.1798 10.1075 19.9251 10.1075 18.3708C10.1075 16.7416 10.6693 15.4775 11.7929 14.5787C12.9165 13.6798 14.527 13.2303 16.6244 13.2303H21.9615V12.5281C21.9615 10.2809 20.6881 9.1573 18.1413 9.1573C15.9877 9.1573 14.6956 9.93445 14.2648 11.4888H10.4446C10.763 9.74719 11.5869 8.40824 12.9165 7.47191C14.2648 6.53558 16.0158 6.06741 18.1693 6.06741C20.5851 6.06741 22.4296 6.62921 23.7031 7.7528C24.9765 8.85767 25.6132 10.4682 25.6132 12.5843V19.4101H27.439V23.2584H23.4783V20.5899H22.2986C21.718 21.5262 20.9315 22.2566 19.939 22.7809C18.9465 23.3052 17.748 23.5674 16.3435 23.5674ZM16.9053 20.5899C17.8604 20.5899 18.7218 20.4026 19.4896 20.0281C20.2574 19.6536 20.8566 19.1573 21.2873 18.5393C21.7368 17.9026 21.9615 17.2004 21.9615 16.4326V15.8989H16.821C14.7611 15.8989 13.7311 16.6667 13.7311 18.2022C13.7311 18.9513 14.012 19.5412 14.5738 19.9719C15.1356 20.3839 15.9128 20.5899 16.9053 20.5899Z" fill="#262626"/>
<path d="M3.25843 23.2584C2.22847 23.2584 1.42322 22.9963 0.842697 22.4719C0.280899 21.9476 0 21.1517 0 20.0843V9.38202L0.0280895 6.40449V0.505615H3.79214V6.40449L3.82023 9.38202V20.2528H8.39888V23.2584H3.25843Z" fill="#262626"/>
</svg>
