<svg width="22" height="23" viewBox="0 0 22 23" fill="none" xmlns="http://www.w3.org/2000/svg">
<rect y="0.5" width="22" height="22" rx="11" fill="#D1A173"/>
<path fill-rule="evenodd" clip-rule="evenodd" d="M6.95656 13.9457L11 19L15.0435 13.9457C15.8245 12.9694 16.25 11.7563 16.25 10.5061V10.25C16.25 7.3505 13.8995 5 11 5C8.1005 5 5.75 7.3505 5.75 10.25V10.5061C5.75 11.7563 6.17551 12.9694 6.95656 13.9457ZM11 12C11.9665 12 12.75 11.2165 12.75 10.25C12.75 9.2835 11.9665 8.5 11 8.5C10.0335 8.5 9.25 9.2835 9.25 10.25C9.25 11.2165 10.0335 12 11 12Z" fill="white"/>
</svg>
