<svg width="30" height="30" viewBox="0 0 30 30" fill="none" xmlns="http://www.w3.org/2000/svg">
<path fill-rule="evenodd" clip-rule="evenodd" d="M0 8.37209C0 3.74831 3.74831 0 8.37209 0H21.6279C26.2517 0 30 3.74831 30 8.37209V21.6279C30 26.2517 26.2517 30 21.6279 30H8.37209C3.74831 30 0 26.2517 0 21.6279V8.37209ZM21.296 15.6791C17.4727 12.7271 12.5382 12.7271 8.71499 15.6791C8.25751 16.0323 7.6003 15.9477 7.24708 15.4903C6.89386 15.0328 6.97839 14.3756 7.43587 14.0224C12.0126 10.4887 17.9983 10.4887 22.5751 14.0224C23.0326 14.3756 23.117 15.0328 22.7639 15.4903C22.4106 15.9477 21.7535 16.0323 21.296 15.6791ZM5.87226 12.2799C11.4146 7.99972 18.5856 7.99972 24.128 12.2799C24.5854 12.6332 25.2426 12.5488 25.5959 12.0913C25.9492 11.6339 25.8647 10.9767 25.4072 10.6234C19.1114 5.7612 10.8889 5.7612 4.59296 10.6234C4.13552 10.9767 4.05107 11.6339 4.40433 12.0913C4.75761 12.5488 5.41482 12.6332 5.87226 12.2799ZM19.4383 19.2433C16.7389 17.1523 13.2516 17.1523 10.5521 19.2433C10.0952 19.5973 9.43785 19.5138 9.08392 19.0568C8.72997 18.5999 8.81347 17.9425 9.27039 17.5887C12.7245 14.9132 17.266 14.9132 20.7201 17.5887C21.1769 17.9425 21.2605 18.5999 20.9065 19.0568C20.5527 19.5138 19.8953 19.5973 19.4383 19.2433ZM13.1004 22.8191C14.2669 21.9184 15.7436 21.9184 16.9101 22.8191C17.3675 23.1724 18.0247 23.0879 18.378 22.6303C18.7312 22.1729 18.6467 21.5157 18.1892 21.1624C16.2692 19.6799 13.7413 19.6799 11.8212 21.1624C11.3637 21.5157 11.2792 22.1729 11.6324 22.6303C11.9857 23.0879 12.6428 23.1724 13.1004 22.8191Z" fill="black"/>
</svg>
